<svg width="45" height="45" viewBox="0 0 45 45" fill="none" xmlns="http://www.w3.org/2000/svg">
<circle cx="22.5" cy="22.4346" r="22" fill="#5C67FF"/>
<path d="M31.0237 17.3564L23.3535 13.1299V21.9624L31.0237 26.3152V17.3564Z" fill="#FFDD5C"/>
<path d="M31.7889 17.0244L22.867 11.8994L13.4707 17.0244L22.867 22.3633L31.7889 17.0244Z" stroke="white" stroke-width="1.5" stroke-linejoin="round"/>
<path d="M13.4707 27.7558L13.4707 17.0059L22.772 22.2728V32.903L13.4707 27.7558Z" stroke="white" stroke-width="1.5" stroke-linejoin="round"/>
<path d="M31.7673 27.7235L22.8906 32.8963V22.3139L31.7673 17.0791V27.7235Z" stroke="white" stroke-width="1.5" stroke-linejoin="round"/>
<path d="M22.8672 12.374V22.5293" stroke="white" stroke-width="1.5" stroke-linejoin="round" stroke-dasharray="2 2"/>
<path d="M31.7568 27.4414L22.9621 22.3638" stroke="white" stroke-width="1.5" stroke-linejoin="round" stroke-dasharray="2 2"/>
<path d="M13.4707 27.7041L22.2654 22.6265" stroke="white" stroke-width="1.5" stroke-linejoin="round" stroke-dasharray="2 2"/>
<path d="M31.4316 21.4727L27.3594 24.374" stroke="white" stroke-width="1.5"/>
<path d="M27.1885 14.9873L23.1162 17.8887" stroke="white" stroke-width="1.5"/>
<path d="M21.9841 22.6221L14.314 18.3955V27.2281L21.9841 31.5808V22.6221Z" fill="#FFDD5C"/>
<path d="M17.8682 20.1328L13.7959 23.0342" stroke="white" stroke-width="1.5"/>
<path d="M22.6299 26.3154L17.5205 30.0059" stroke="white" stroke-width="1.5"/>
<path d="M22.1934 22.335L14.0051 27.7266" stroke="white" stroke-width="1.5"/>
</svg>
