<svg width="44" height="45" viewBox="0 0 44 45" fill="none" xmlns="http://www.w3.org/2000/svg">
<circle cx="22" cy="22.1484" r="22" fill="#5C67FF"/>
<path d="M33.9986 22.1614C33.9986 20.7504 32.3661 19.5298 29.4078 18.7235C29.1558 18.6633 28.9009 18.8138 28.833 19.0637C28.7644 19.3135 28.9072 19.5725 29.1544 19.6488C31.5548 20.3018 33.0389 21.2641 33.0389 22.1621C33.0389 23.3771 30.3773 24.6971 26.2149 25.2507C26.3108 24.2296 26.3598 23.1832 26.3598 22.1474C26.3598 21.0514 26.3059 19.9399 26.1995 18.8635L27.1271 19.5774C27.3371 19.7391 27.6388 19.6999 27.8005 19.4899C27.9622 19.2799 27.923 18.9783 27.713 18.8166L26.0308 17.5246C25.454 13.4659 24.0938 10.1484 22.0378 10.1484C19.9818 10.1484 18.5019 13.7746 17.9685 18.0838C13.6255 18.6122 10 20.0029 10 22.1614C10 24.3199 13.6101 25.6895 17.9062 26.2271L16.9891 26.9326C16.8883 27.0102 16.8218 27.125 16.8057 27.251C16.7896 27.377 16.8239 27.5051 16.9016 27.6058C16.9793 27.7066 17.0942 27.7724 17.2202 27.7892C17.3462 27.8053 17.4736 27.771 17.5751 27.6933L19.2944 26.3698C20.1883 26.4419 21.0963 26.4832 21.9979 26.4832C23.0445 26.4832 24.1015 26.4321 25.1327 26.3355C24.5817 30.5146 23.2587 33.1882 22.0385 33.1882C21.0137 33.1882 19.9349 31.2887 19.293 28.3498C19.2713 28.2211 19.1971 28.1063 19.0879 28.0328C18.9793 27.9593 18.8456 27.9341 18.7175 27.9614C18.5894 27.9894 18.4781 28.0685 18.4102 28.1805C18.3416 28.2924 18.322 28.4275 18.3563 28.5542C19.132 32.1055 20.4746 34.1484 22.0392 34.1484C24.1862 34.1484 25.573 30.5307 26.1092 26.2285C30.3983 25.6874 34 24.3024 34 22.1621L33.9986 22.1614ZM21.9979 25.5209C21.0718 25.5209 20.1911 25.4817 19.3518 25.4152L18.0805 23.7662C18.0042 23.662 17.8887 23.5927 17.7606 23.5745C17.6325 23.5563 17.5023 23.5906 17.4001 23.669C17.2972 23.748 17.2314 23.8649 17.2167 23.9937C17.202 24.1225 17.2391 24.2513 17.321 24.3513L18.0385 25.2815C13.7298 24.7489 10.9576 23.4016 10.9576 22.1614C10.9576 20.9212 13.6227 19.6061 17.8621 19.0602C17.7662 20.0764 17.7186 21.1171 17.7186 22.1474C17.7186 22.4119 17.9335 22.6268 18.1988 22.6268C18.4641 22.6268 18.679 22.4119 18.679 22.1474C18.679 21.0164 18.7357 19.9504 18.833 18.9531C19.6689 18.8733 20.5516 18.8194 21.4869 18.8061H21.9993C22.2191 18.8061 22.4389 18.8061 22.6559 18.8117C22.9177 18.8082 23.1313 18.6017 23.1439 18.34C23.146 18.2126 23.0977 18.0894 23.0095 17.9977C22.9212 17.906 22.8001 17.8535 22.6727 17.8514C22.4501 17.8514 22.2254 17.8459 22.0007 17.8459H21.4757C20.6272 17.8584 19.7781 17.906 18.9457 17.9809C19.496 13.79 20.8211 11.1087 22.0413 11.1087C23.2615 11.1087 24.5173 13.6388 25.0935 17.6303L23.7858 19.3261C23.6248 19.5361 23.664 19.8363 23.8733 19.998C23.958 20.061 24.0609 20.0946 24.1673 20.0939C24.3171 20.0953 24.4592 20.0267 24.5509 19.9077L25.2566 18.9909C25.3525 19.977 25.4064 21.0276 25.4064 22.1418C25.4064 23.256 25.3497 24.3492 25.2517 25.3585C24.2345 25.4635 23.1523 25.5209 22 25.5209H21.9979Z" fill="white" stroke="white" stroke-width="0.5"/>
</svg>
