<svg width="45" height="45" viewBox="0 0 45 45" fill="none" xmlns="http://www.w3.org/2000/svg">
<circle cx="22.5" cy="22.4346" r="22" fill="#5C67FF"/>
<path d="M31.5487 17.0244L22.6268 11.8994L13.2305 17.0244L22.6268 22.3633L31.5487 17.0244Z" stroke="white" stroke-width="1.5" stroke-linejoin="round"/>
<path d="M13.2305 27.7558L13.2305 17.0059L22.5318 22.2728V32.903L13.2305 27.7558Z" stroke="white" stroke-width="1.5" stroke-linejoin="round"/>
<path d="M31.527 27.7235L22.6504 32.8963V22.3139L31.527 17.0791V27.7235Z" stroke="white" stroke-width="1.5" stroke-linejoin="round"/>
<path d="M22.627 12.374V22.5293" stroke="white" stroke-width="1.5" stroke-linejoin="round" stroke-dasharray="2 2"/>
<path d="M31.5166 27.4414L22.7219 22.3638" stroke="white" stroke-width="1.5" stroke-linejoin="round" stroke-dasharray="2 2"/>
<path d="M13.2305 27.7041L22.0252 22.6265" stroke="white" stroke-width="1.5" stroke-linejoin="round" stroke-dasharray="2 2"/>
<path d="M22.5573 12.8076L29.9306 17.0254L22.5573 21.4725L14.8396 17.0254L22.5573 12.8076Z" fill="#FFDD5C"/>
<path d="M22.5573 23.3721L29.9306 27.5898L22.5573 32.0369L14.8396 27.5898L22.5573 23.3721Z" fill="#FFDD5C"/>
<path d="M26.3357 14.4912L27.8401 18.7122" stroke="white" stroke-width="1.5"/>
<path d="M17.6279 14.4912L19.5005 20.1328" stroke="white" stroke-width="1.5"/>
<path d="M21.3853 12.8076L23.884 20.9121" stroke="white" stroke-width="1.5"/>
<path d="M26.3357 25.3359L27.8401 29.557" stroke="white" stroke-width="1.5"/>
<path d="M17.6279 25.3359L19.5005 30.9775" stroke="white" stroke-width="1.5"/>
<path d="M21.4753 23.7373L23.884 31.7568" stroke="white" stroke-width="1.5"/>
</svg>
