<svg width="44" height="44" viewBox="0 0 44 44" fill="none" xmlns="http://www.w3.org/2000/svg">
<circle cx="22" cy="22" r="22" fill="#B9BCBE"/>
<path d="M33.9986 22.0129C33.9986 20.602 32.3661 19.3814 29.4078 18.5751C29.1558 18.5149 28.9009 18.6654 28.833 18.9152C28.7644 19.1651 28.9072 19.424 29.1544 19.5003C31.5548 20.1533 33.0389 21.1157 33.0389 22.0136C33.0389 23.2287 30.3773 24.5487 26.2149 25.1023C26.3108 24.0811 26.3598 23.0348 26.3598 21.999C26.3598 20.9029 26.3059 19.7915 26.1995 18.7151L27.1271 19.4289C27.3371 19.5906 27.6388 19.5514 27.8005 19.3415C27.9622 19.1315 27.923 18.8298 27.713 18.6682L26.0308 17.3762C25.454 13.3175 24.0938 10 22.0378 10C19.9818 10 18.5019 13.6261 17.9685 17.9354C13.6255 18.4638 10 19.8545 10 22.0129C10 24.1714 13.6101 25.5411 17.9062 26.0786L16.9891 26.7841C16.8883 26.8618 16.8218 26.9766 16.8057 27.1026C16.7896 27.2285 16.8239 27.3566 16.9016 27.4574C16.9793 27.5582 17.0942 27.624 17.2202 27.6408C17.3462 27.6569 17.4736 27.6226 17.5751 27.5449L19.2944 26.2214C20.1883 26.2935 21.0963 26.3348 21.9979 26.3348C23.0445 26.3348 24.1015 26.2837 25.1327 26.1871C24.5817 30.3662 23.2587 33.0397 22.0385 33.0397C21.0137 33.0397 19.9349 31.1402 19.293 28.2014C19.2713 28.0726 19.1971 27.9578 19.0879 27.8843C18.9793 27.8109 18.8456 27.7857 18.7175 27.813C18.5894 27.8409 18.4781 27.92 18.4102 28.032C18.3416 28.144 18.322 28.2791 18.3563 28.4058C19.132 31.957 20.4746 34 22.0392 34C24.1862 34 25.573 30.3823 26.1092 26.08C30.3983 25.539 34 24.1539 34 22.0136L33.9986 22.0129ZM21.9979 25.3724C21.0718 25.3724 20.1911 25.3332 19.3518 25.2667L18.0805 23.6178C18.0042 23.5135 17.8887 23.4442 17.7606 23.426C17.6325 23.4078 17.5023 23.4421 17.4001 23.5205C17.2972 23.5996 17.2314 23.7165 17.2167 23.8453C17.202 23.974 17.2391 24.1028 17.321 24.2029L18.0385 25.1331C13.7298 24.6004 10.9576 23.2532 10.9576 22.0129C10.9576 20.7727 13.6227 19.4576 17.8621 18.9117C17.7662 19.928 17.7186 20.9687 17.7186 21.999C17.7186 22.2635 17.9335 22.4784 18.1988 22.4784C18.4641 22.4784 18.679 22.2635 18.679 21.999C18.679 20.8679 18.7357 19.802 18.833 18.8046C19.6689 18.7249 20.5516 18.671 21.4869 18.6577H21.9993C22.2191 18.6577 22.4389 18.6577 22.6559 18.6633C22.9177 18.6598 23.1313 18.4533 23.1439 18.1915C23.146 18.0642 23.0977 17.941 23.0095 17.8493C22.9212 17.7576 22.8001 17.7051 22.6727 17.703C22.4501 17.703 22.2254 17.6974 22.0007 17.6974H21.4757C20.6272 17.71 19.7781 17.7576 18.9457 17.8325C19.496 13.6415 20.8211 10.9603 22.0413 10.9603C23.2615 10.9603 24.5173 13.4904 25.0935 17.4818L23.7858 19.1777C23.6248 19.3877 23.664 19.6879 23.8733 19.8496C23.958 19.9126 24.0609 19.9462 24.1673 19.9455C24.3171 19.9469 24.4592 19.8783 24.5509 19.7593L25.2566 18.8424C25.3525 19.8286 25.4064 20.8791 25.4064 21.9934C25.4064 23.1076 25.3497 24.2008 25.2517 25.2101C24.2345 25.315 23.1523 25.3724 22 25.3724H21.9979Z" fill="white" stroke="white" stroke-width="0.5"/>
</svg>
