<svg width="44" height="44" viewBox="0 0 44 44" fill="none" xmlns="http://www.w3.org/2000/svg">
<circle cx="22" cy="22" r="22" fill="#B9BCBE"/>
<path d="M18.2783 21.987C18.2783 22.2651 18.3094 22.5433 18.3695 22.8149H13.0622L14.253 24.0485C14.5648 24.3713 14.48 24.9133 14.0751 25.1067C14.0719 25.108 14.0693 25.1093 14.0661 25.1106C13.773 25.2471 13.4276 25.2025 13.1779 24.9961L10.3008 22.6248C10.11 22.4682 10 22.2341 10 21.9876C10 21.7412 10.1106 21.507 10.3008 21.3498L13.1779 18.9779C13.427 18.7715 13.773 18.7269 14.0661 18.8634C14.0693 18.8647 14.0719 18.866 14.0751 18.8672C14.48 19.0607 14.5648 19.6027 14.253 19.9255L13.0622 21.159H18.3695C18.3094 21.4307 18.279 21.7088 18.2783 21.987Z" fill="white"/>
<path d="M33.7103 22.6277L30.8332 24.9997C30.5835 25.2061 30.2381 25.2507 29.9451 25.1142C29.9418 25.1129 29.9392 25.1116 29.936 25.1103C29.5311 24.9169 29.4463 24.3749 29.7581 24.0521L30.949 22.8186H25.6416C25.7632 22.2733 25.7632 21.7079 25.6416 21.1626H30.949L29.7581 19.9291C29.4463 19.6063 29.5311 19.0643 29.936 18.8709C29.9392 18.8696 29.9418 18.8683 29.9451 18.867C30.2387 18.7312 30.5841 18.7751 30.8332 18.9815L33.7103 21.3535C33.9012 21.51 34.0111 21.7442 34.0111 21.9913C34.0111 22.2383 33.9005 22.4719 33.7103 22.6284V22.6277Z" fill="white"/>
<path d="M24.377 14.5525L22.833 13.0622V18.3695C22.2877 18.2479 21.7223 18.2479 21.177 18.3695V13.0622L19.9435 14.253C19.6207 14.5648 19.0787 14.48 18.8853 14.0751C18.884 14.0719 18.8827 14.0693 18.8814 14.0661C18.7456 13.7724 18.7895 13.427 18.9959 13.1779L21.3679 10.3008C21.5244 10.11 21.7586 10 22.0057 10C22.2528 10 22.4863 10.1106 22.6428 10.3008L25.0148 13.1779C25.2211 13.427 25.2658 13.773 25.1293 14.0661C24.9934 14.3597 24.7011 14.5486 24.3776 14.5525H24.377Z" fill="white"/>
<path d="M25.0155 30.8244L22.6435 33.7016C22.487 33.8924 22.2528 34.0023 22.0064 34.0023C21.7599 34.0023 21.5258 33.8917 21.3686 33.7016L18.9966 30.8244C18.7903 30.5747 18.7463 30.2293 18.8821 29.9363C18.8834 29.933 18.8847 29.9304 18.886 29.9272C19.0794 29.5223 19.6215 29.4376 19.9442 29.7493L21.1778 30.9402V25.6328C21.7231 25.7544 22.2884 25.7544 22.8337 25.6328V30.9402L24.0672 29.7493C24.39 29.4376 24.9321 29.5223 25.1255 29.9272C25.1268 29.9304 25.1281 29.933 25.1294 29.9363C25.2652 30.2299 25.2212 30.5754 25.0149 30.8244H25.0155Z" fill="white"/>
<path d="M23.4545 22.0075C23.4545 22.8077 22.8057 23.4565 22.0056 23.4565C21.2054 23.4565 20.5566 22.8077 20.5566 22.0075C20.5566 21.2074 21.2054 20.5586 22.0056 20.5586C22.8057 20.5586 23.4545 21.2074 23.4545 22.0075Z" fill="white"/>
</svg>
