<svg width="45" height="45" viewBox="0 0 45 45" fill="none" xmlns="http://www.w3.org/2000/svg">
<circle cx="22.5" cy="22.4346" r="22" fill="#5C67FF"/>
<path d="M12.9902 27.7558L12.9902 17.0059L22.2916 22.2728V32.903L12.9902 27.7558Z" stroke="white" stroke-width="1.5" stroke-linejoin="round"/>
<path d="M31.2868 27.7235L22.4102 32.8963V22.3139L31.2868 17.0791V27.7235Z" stroke="white" stroke-width="1.5" stroke-linejoin="round"/>
<path d="M22.3867 12.374V22.5293" stroke="white" stroke-width="1.5" stroke-linejoin="round" stroke-dasharray="2 2"/>
<path d="M31.2764 27.4414L22.4816 22.3638" stroke="white" stroke-width="1.5" stroke-linejoin="round" stroke-dasharray="2 2"/>
<path d="M13.7109 17.6401L22.0597 12.8838V22.434L13.711 27.3816L13.7109 17.6401Z" fill="#FFDD5C"/>
<path d="M12.9902 27.7041L21.785 22.6265" stroke="white" stroke-width="1.5" stroke-linejoin="round" stroke-dasharray="2 2"/>
<path d="M17.6409 14.5488L22.2915 17.4512" stroke="white" stroke-width="1.5"/>
<path d="M13.3711 21.4727L17.8853 24.9023" stroke="white" stroke-width="1.5"/>
<path d="M23.1656 22.7719L30.5187 18.4111V27.2926L23.1655 31.5788L23.1656 22.7719Z" fill="#FFDD5C"/>
<path d="M31.3084 17.0244L22.3866 11.8994L12.9902 17.0244L22.3866 22.3633L31.3084 17.0244Z" stroke="white" stroke-width="1.5" stroke-linejoin="round"/>
<path d="M27.0562 19.7227L31.2764 23.1875" stroke="white" stroke-width="1.5"/>
<path d="M22.4102 25.71L27.4734 30.0605" stroke="white" stroke-width="1.5"/>
<path d="M23.5938 21.5596L30.5188 27.8848" stroke="white" stroke-width="1.5"/>
</svg>
