<svg width="19" height="18" viewBox="0 0 19 18" fill="none" xmlns="http://www.w3.org/2000/svg">
<path fill-rule="evenodd" clip-rule="evenodd" d="M12.8136 10.422C12.8575 10.1882 12.8805 9.94703 12.8805 9.70051C12.8805 7.55753 11.1433 5.82031 9.00031 5.82031C8.75378 5.82031 8.51263 5.8433 8.27886 5.88726L9.22019 6.82858C10.6356 6.93542 11.7654 8.06524 11.8722 9.48063L12.8136 10.422ZM6.47087 8.3219C6.24723 8.73135 6.12012 9.20109 6.12012 9.70051C6.12012 11.2912 7.40962 12.5807 9.00031 12.5807C9.49973 12.5807 9.96946 12.4536 10.3789 12.23L11.1079 12.959C10.501 13.3523 9.77735 13.5807 9.00031 13.5807C6.85734 13.5807 5.12012 11.8435 5.12012 9.70051C5.12012 8.92346 5.34853 8.19977 5.74187 7.5929L6.47087 8.3219Z" fill="#040404"/>
<path fill-rule="evenodd" clip-rule="evenodd" d="M13.0001 14.8524L12.2648 14.1171C11.2467 14.664 10.1429 15.0214 9.00021 15.0214C7.39298 15.0214 5.86276 14.3144 4.53959 13.3673C3.22023 12.4229 2.14842 11.2695 1.46868 10.4477C1.04361 9.93387 1 9.84527 1 9.70115C1 9.55703 1.04361 9.46843 1.46868 8.95457C2.11266 8.17607 3.10855 7.09986 4.33344 6.18573L3.61944 5.47174C2.36126 6.43081 1.35046 7.52859 0.698137 8.31718L0.639389 8.38798C0.307977 8.78674 0 9.15731 0 9.70115C0 10.245 0.307976 10.6156 0.639389 11.0143L0.698137 11.0851C1.40791 11.9432 2.54208 13.1672 3.95754 14.1804C5.36918 15.1909 7.10261 16.0214 9.00021 16.0214C10.4534 16.0214 11.8103 15.5344 13.0001 14.8524ZM6.30824 3.91789C7.15194 3.58661 8.05574 3.38086 9.00021 3.38086C10.8978 3.38086 12.6312 4.21143 14.0429 5.22188C15.4583 6.23505 16.5925 7.45914 17.3023 8.31718L17.361 8.38798C17.6924 8.78674 18.0004 9.15731 18.0004 9.70115C18.0004 10.245 17.6924 10.6156 17.361 11.0143L17.3023 11.0851C16.8445 11.6385 16.2102 12.3442 15.4377 13.0474L14.7298 12.3394C15.4718 11.6679 16.0861 10.9865 16.5317 10.4477C16.9568 9.93387 17.0004 9.84527 17.0004 9.70115C17.0004 9.55703 16.9568 9.46843 16.5317 8.95457C15.852 8.13284 14.7802 6.97942 13.4608 6.03503C12.1377 5.08791 10.6074 4.38086 9.00021 4.38086C8.34773 4.38086 7.70794 4.49739 7.08955 4.6992L6.30824 3.91789Z" fill="#040404"/>
<path d="M2.20996 1L17.7307 16.5208" stroke="black"/>
</svg>
