<svg width="18" height="18" viewBox="0 0 18 18" fill="none" xmlns="http://www.w3.org/2000/svg">
<path fill-rule="evenodd" clip-rule="evenodd" d="M17.9731 9.14392C17.9731 8.78601 17.7792 8.54988 17.3915 8.07761C15.9472 6.31834 12.7271 3 8.98654 3C5.24598 3 2.02591 6.31834 0.581578 8.07761C0.193859 8.54988 1.86265e-09 8.78601 0 9.14392C-2.79397e-09 9.50182 0.193859 9.73795 0.581578 10.2102C2.02591 11.9695 5.24598 15.2878 8.98654 15.2878C12.7271 15.2878 15.9472 11.9695 17.3915 10.2102C17.7792 9.73795 17.9731 9.50182 17.9731 9.14392ZM8.98654 12.2159C10.6831 12.2159 12.0585 10.8405 12.0585 9.14392C12.0585 7.44732 10.6831 6.07196 8.98654 6.07196C7.28995 6.07196 5.91458 7.44732 5.91458 9.14392C5.91458 10.8405 7.28995 12.2159 8.98654 12.2159Z" fill="white"/>
</svg>
