<svg width="20" height="20" viewBox="0 0 20 20" fill="none" xmlns="http://www.w3.org/2000/svg">
<g clip-path="url(#clip0_98_17564)">
<path d="M8.68074 15.684C9.9024 15.6837 11.0957 15.3546 12.1384 14.7387C12.5735 14.4817 13.1377 14.5089 13.495 14.8662L16.0243 17.3954C16.3583 17.7293 16.8997 17.7293 17.2337 17.3954C17.5676 17.0614 17.5676 16.5199 17.2337 16.186L14.7046 13.657C14.3472 13.2997 14.3201 12.7353 14.5772 12.3002C15.1934 11.2574 15.5228 10.0639 15.5231 8.84199C15.5231 5.06949 12.4534 2 8.68074 2C4.90803 2 1.83838 5.06949 1.83838 8.84199C1.83838 12.6145 4.90803 15.684 8.68074 15.684ZM8.68074 3.7105C11.5109 3.7105 13.8125 6.01197 13.8125 8.84199C13.8125 11.672 11.5109 13.9735 8.68074 13.9735C5.85057 13.9735 3.54897 11.672 3.54897 8.84199C3.54897 6.01197 5.85057 3.7105 8.68074 3.7105Z" fill="#ACACAC"/>
</g>
<defs>
<clipPath id="clip0_98_17564">
<rect width="20" height="20" fill="white"/>
</clipPath>
</defs>
</svg>
