<svg width="22" height="22" viewBox="0 0 22 22" fill="none" xmlns="http://www.w3.org/2000/svg">
<path d="M16.6753 7.16455C16.6753 6.43229 15.6075 6.29676 15.1656 6.30644C15.1656 6.30644 14.7656 5.40966 13.1559 5.81934C13.1333 5.7774 12.7043 5.30003 11.8817 5.30003C11.0591 5.30003 10.5398 5.78713 10.5398 5.78713C10.5398 5.78713 10.5204 5.77096 10.4914 5.74838V2.26449C10.4914 1.56449 9.92689 1 9.23012 1C8.53335 1 7.96882 1.56772 7.96882 2.26449V8.41936C6.51398 9.15806 5.10753 8.34197 5.35269 10.2291C5.85592 14.1097 7.86883 14.7581 8.58496 15.5194C8.02367 15.5323 7.59786 15.7548 7.59786 16.4032V20.2484C7.59786 20.9774 8.13979 21 8.80431 21H15.1301C15.7946 21 16.3366 20.9774 16.3366 20.2484V16.4032C16.3366 15.7871 15.9495 15.5613 15.4237 15.542L15.2237 15.3355C15.1946 14.3516 16.6721 13.7096 16.6721 12.9806V7.16778L16.6753 7.16455Z" fill="#E6E8FF"/>
<path d="M7.97198 8.41936V10.0355M10.514 5.7194V7.45484M13.1076 5.9581V7.45484M15.0494 6.26777V7.45484M8.57855 15.529H10.4947M13.7398 15.529H15.656M16.6753 7.16455C16.6753 6.43229 15.6075 6.29676 15.1656 6.30644C15.1656 6.30644 14.7656 5.40966 13.1559 5.81934C13.1333 5.7774 12.7043 5.30003 11.8817 5.30003C11.0591 5.30003 10.5398 5.78713 10.5398 5.78713C10.5398 5.78713 10.5204 5.77096 10.4914 5.74838V2.26449C10.4914 1.56449 9.92689 1 9.23012 1C8.53335 1 7.96882 1.56772 7.96882 2.26449V8.41936C6.51398 9.15806 5.10753 8.34197 5.35269 10.2291C5.85592 14.1097 7.86883 14.7581 8.58496 15.5194C8.02367 15.5323 7.59786 15.7548 7.59786 16.4032V20.2484C7.59786 20.9774 8.13979 21 8.80431 21H15.1301C15.7946 21 16.3366 20.9774 16.3366 20.2484V16.4032C16.3366 15.7871 15.9495 15.5613 15.4237 15.542L15.2237 15.3355C15.1946 14.3516 16.6721 13.7096 16.6721 12.9806V7.16778L16.6753 7.16455Z" stroke="#5C67FF" stroke-width="1.5" stroke-miterlimit="10" stroke-linecap="round" stroke-linejoin="round"/>
</svg>
