<svg width="22" height="22" viewBox="0 0 22 22" fill="none" xmlns="http://www.w3.org/2000/svg">
<path d="M1.6447 2.92639C1.28985 2.92639 0.999512 2.77728 0.999512 2.59503C0.999512 2.41278 1.28985 2.26367 1.6447 2.26367H20.3552C20.71 2.26367 21.0004 2.41278 21.0004 2.59503C21.0004 2.77728 20.71 2.92639 20.3552 2.92639H1.6447Z" fill="#E6E8FF" stroke="#5C67FF" stroke-linecap="round" stroke-linejoin="round"/>
<rect x="2.88477" y="3.44336" width="16.6528" height="11.0176" fill="#E6E8FF"/>
<path d="M2.28955 14.228V3.25977" stroke="#5C67FF" stroke-width="1.2" stroke-linecap="round" stroke-linejoin="round"/>
<path d="M20.0327 3.25977V14.228" stroke="#5C67FF" stroke-width="1.2" stroke-linecap="round" stroke-linejoin="round"/>
<path d="M4.87064 14.4609H1.6447C1.28985 14.4609 0.999512 14.6264 0.999512 14.8285C0.999512 15.0307 1.28985 15.1961 1.6447 15.1961H20.3552C20.71 15.1961 21.0004 15.0307 21.0004 14.8285C21.0004 14.6264 20.71 14.4609 20.3552 14.4609H17.4518" fill="#E6E8FF"/>
<path d="M4.87064 14.4609H1.6447C1.28985 14.4609 0.999512 14.6264 0.999512 14.8285C0.999512 15.0307 1.28985 15.1961 1.6447 15.1961H20.3552C20.71 15.1961 21.0004 15.0307 21.0004 14.8285C21.0004 14.6264 20.71 14.4609 20.3552 14.4609H17.4518" stroke="#5C67FF" stroke-linecap="round" stroke-linejoin="round"/>
<mask id="path-7-inside-1_116_3512" fill="white">
<path d="M10.3549 15.1934V18.2612L4.70948 19.7097C4.44172 19.7097 4.22559 20 4.22559 20.3549C4.22559 20.7097 4.44172 21.0001 4.70948 21.0001L11.0001 19.3871L17.2907 21.0001C17.5584 21.0001 17.7745 20.7097 17.7745 20.3549C17.7745 20 17.5584 19.7097 17.2907 19.7097L11.6453 18.2612V15.1934"/>
</mask>
<path d="M10.3549 15.1934V18.2612L4.70948 19.7097C4.44172 19.7097 4.22559 20 4.22559 20.3549C4.22559 20.7097 4.44172 21.0001 4.70948 21.0001L11.0001 19.3871L17.2907 21.0001C17.5584 21.0001 17.7745 20.7097 17.7745 20.3549C17.7745 20 17.5584 19.7097 17.2907 19.7097L11.6453 18.2612V15.1934" fill="#E6E8FF"/>
<path d="M11.5549 15.1934C11.5549 14.5306 11.0176 13.9934 10.3549 13.9934C9.69213 13.9934 9.15488 14.5306 9.15488 15.1934H11.5549ZM10.3549 18.2612L10.6531 19.4236C11.1838 19.2874 11.5549 18.8091 11.5549 18.2612H10.3549ZM4.70948 19.7097V20.9097C4.81007 20.9097 4.91027 20.897 5.0077 20.872L4.70948 19.7097ZM4.70948 21.0001V22.2001C4.81001 22.2001 4.91014 22.1874 5.00753 22.1625L4.70948 21.0001ZM11.0001 19.3871L11.2981 18.2247C11.1026 18.1745 10.8976 18.1745 10.702 18.2247L11.0001 19.3871ZM17.2907 21.0001L16.9926 22.1625C17.09 22.1874 17.1901 22.2001 17.2907 22.2001V21.0001ZM17.2907 19.7097L16.9924 20.872C17.0899 20.897 17.1901 20.9097 17.2907 20.9097V19.7097ZM11.6453 18.2612H10.4453C10.4453 18.8091 10.8163 19.2874 11.347 19.4236L11.6453 18.2612ZM12.8453 15.1934C12.8453 14.5306 12.308 13.9934 11.6453 13.9934C10.9825 13.9934 10.4453 14.5306 10.4453 15.1934H12.8453ZM9.15488 15.1934V18.2612H11.5549V15.1934H9.15488ZM10.0567 17.0989L4.41125 18.5473L5.0077 20.872L10.6531 19.4236L10.0567 17.0989ZM4.70948 18.5097C4.11146 18.5097 3.66341 18.8367 3.40633 19.1803C3.14948 19.5235 3.02559 19.9427 3.02559 20.3549H5.42559C5.42559 20.4121 5.40976 20.5088 5.32792 20.6181C5.24584 20.7278 5.03974 20.9097 4.70948 20.9097V18.5097ZM3.02559 20.3549C3.02559 20.767 3.14948 21.1862 3.40633 21.5295C3.66341 21.873 4.11146 22.2001 4.70948 22.2001V19.8001C5.03974 19.8001 5.24584 19.9819 5.32792 20.0916C5.40976 20.201 5.42559 20.2976 5.42559 20.3549H3.02559ZM5.00753 22.1625L11.2981 20.5495L10.702 18.2247L4.41143 19.8377L5.00753 22.1625ZM10.702 20.5495L16.9926 22.1625L17.5887 19.8377L11.2981 18.2247L10.702 20.5495ZM17.2907 22.2001C17.8887 22.2001 18.3367 21.873 18.5938 21.5295C18.8507 21.1862 18.9745 20.767 18.9745 20.3549H16.5745C16.5745 20.2976 16.5904 20.201 16.6722 20.0916C16.7543 19.9819 16.9604 19.8001 17.2907 19.8001V22.2001ZM18.9745 20.3549C18.9745 19.9427 18.8507 19.5235 18.5938 19.1803C18.3367 18.8367 17.8887 18.5097 17.2907 18.5097V20.9097C16.9604 20.9097 16.7543 20.7278 16.6722 20.6181C16.5904 20.5088 16.5745 20.4121 16.5745 20.3549H18.9745ZM17.5889 18.5473L11.9435 17.0989L11.347 19.4236L16.9924 20.872L17.5889 18.5473ZM12.8453 18.2612V15.1934H10.4453V18.2612H12.8453Z" fill="#5C67FF" mask="url(#path-7-inside-1_116_3512)"/>
<path d="M7.4512 11.6465C9.05467 11.6465 10.3545 10.3467 10.3545 8.74319C10.3545 7.13972 9.05467 5.83984 7.4512 5.83984C5.84772 5.83984 4.54785 7.13972 4.54785 8.74319C4.54785 10.3467 5.84772 11.6465 7.4512 11.6465Z" fill="#E6E8FF" stroke="#5C67FF" stroke-width="1.2" stroke-linecap="round" stroke-linejoin="round"/>
<path d="M8.41944 6.16016L7.45166 8.74091L10.355 8.41832" fill="#E6E8FF"/>
<path d="M8.41944 6.16016L7.45166 8.74091L10.355 8.41832" stroke="#5C67FF" stroke-width="1.2" stroke-linecap="round" stroke-linejoin="round"/>
<path d="M12.29 6.16016H17.129" stroke="#5C67FF" stroke-width="1.2" stroke-linecap="round" stroke-linejoin="round"/>
<path d="M12.29 7.77539H17.7741" stroke="#5C67FF" stroke-width="1.2" stroke-linecap="round" stroke-linejoin="round"/>
<path d="M12.29 9.70898H15.516" stroke="#5C67FF" stroke-width="1.2" stroke-linecap="round" stroke-linejoin="round"/>
<path d="M12.29 11.3223H16.4838" stroke="#5C67FF" stroke-width="1.2" stroke-linecap="round" stroke-linejoin="round"/>
<path d="M11.6454 1H10.355V1.96778H11.6454V1Z" fill="#E6E8FF" stroke="#5C67FF" stroke-width="1.2" stroke-linecap="round" stroke-linejoin="round"/>
</svg>
