<svg width="22" height="22" viewBox="0 0 22 22" fill="none" xmlns="http://www.w3.org/2000/svg">
<g clip-path="url(#clip0_116_3512)">
<path d="M11.0017 14.2248C12.783 14.2248 14.227 12.781 14.227 11C14.227 9.21901 12.783 7.77524 11.0017 7.77524C9.22041 7.77524 7.7764 9.21901 7.7764 11C7.7764 12.781 9.22041 14.2248 11.0017 14.2248Z" fill="#E6E8FF"/>
<path d="M20.3549 9.06514H18.1618C17.994 8.44276 17.7457 7.85263 17.4328 7.30442L18.9842 5.75331C19.2358 5.50178 19.2358 5.09223 18.9842 4.8407L17.1587 3.01548C16.9071 2.76395 16.4975 2.76395 16.2459 3.01548L14.6946 4.56659C14.1463 4.25057 13.5593 4.00548 12.9336 3.8378V1.64495C12.9336 1.29023 12.6433 1 12.2885 1H9.70827C9.35349 1 9.06322 1.29023 9.06322 1.64495V3.8378C8.44074 4.00548 7.85052 4.25379 7.30222 4.56659L5.75084 3.01548C5.49927 2.76395 5.08967 2.76395 4.8381 3.01548L3.01258 4.8407C2.761 5.09223 2.761 5.50178 3.01258 5.75331L4.56394 7.30442C4.24786 7.85263 4.00275 8.43954 3.83504 9.06514H1.64506C1.29028 9.06514 1 9.35537 1 9.7101V12.2899C1 12.6446 1.29028 12.9349 1.64506 12.9349H3.83825C4.00596 13.5572 4.25431 14.1474 4.56717 14.6956L3.0158 16.2467C2.76423 16.4982 2.76423 16.9078 3.0158 17.1593L4.84133 18.9845C5.0929 19.2361 5.5025 19.2361 5.75407 18.9845L7.30543 17.4334C7.85373 17.7494 8.44074 17.9945 9.06644 18.1622V20.355C9.06644 20.7098 9.35672 21 9.7115 21H12.2917C12.6465 21 12.9368 20.7098 12.9368 20.355V18.1622C13.5593 17.9945 14.1495 17.7462 14.6978 17.4334L16.2492 18.9845C16.5007 19.2361 16.9103 19.2361 17.1619 18.9845L18.9874 17.1593C19.239 16.9078 19.239 16.4982 18.9874 16.2467L17.4361 14.6956C17.7521 14.1474 17.9973 13.5605 18.165 12.9349H20.3549C20.7097 12.9349 21 12.6446 21 12.2899V9.7101C21 9.35537 20.7097 9.06514 20.3549 9.06514Z" fill="#E6E8FF"/>
<path d="M9.06656 17.4495V18.7399M12.9369 17.4495V18.7399M9.06656 3.26057V4.55089M12.9369 3.26057V4.55089M4.55138 9.06515H3.26106M4.55138 12.9349H3.26106M18.7426 9.06515H17.4522M18.7426 12.9349H17.4522M5.07366 14.1925L4.16075 15.1054M7.80865 16.9271L6.89576 17.84M15.1075 4.16026L14.1946 5.07317M17.8426 6.89487L16.9329 7.80778M7.80865 5.07317L6.89576 4.16026M5.07366 7.80778L4.16075 6.89487M17.8426 15.1054L16.9329 14.1925M15.1075 17.84L14.1946 16.9271M14.227 11C14.227 12.781 12.783 14.2248 11.0017 14.2248C9.22041 14.2248 7.7764 12.781 7.7764 11C7.7764 9.21901 9.22041 7.77524 11.0017 7.77524C12.783 7.77524 14.227 9.21901 14.227 11ZM20.3549 9.06514H18.1618C17.994 8.44276 17.7457 7.85263 17.4328 7.30442L18.9842 5.75331C19.2358 5.50178 19.2358 5.09223 18.9842 4.8407L17.1587 3.01548C16.9071 2.76395 16.4975 2.76395 16.2459 3.01548L14.6946 4.56659C14.1463 4.25057 13.5593 4.00548 12.9336 3.8378V1.64495C12.9336 1.29023 12.6433 1 12.2885 1H9.70827C9.35349 1 9.06322 1.29023 9.06322 1.64495V3.8378C8.44074 4.00548 7.85052 4.25379 7.30222 4.56659L5.75084 3.01548C5.49927 2.76395 5.08967 2.76395 4.8381 3.01548L3.01258 4.8407C2.761 5.09223 2.761 5.50178 3.01258 5.75331L4.56394 7.30442C4.24786 7.85263 4.00275 8.43954 3.83504 9.06514H1.64506C1.29028 9.06514 1 9.35537 1 9.7101V12.2899C1 12.6446 1.29028 12.9349 1.64506 12.9349H3.83825C4.00596 13.5572 4.25431 14.1474 4.56717 14.6956L3.0158 16.2467C2.76423 16.4982 2.76423 16.9078 3.0158 17.1593L4.84133 18.9845C5.0929 19.2361 5.5025 19.2361 5.75407 18.9845L7.30543 17.4334C7.85373 17.7494 8.44074 17.9945 9.06644 18.1622V20.355C9.06644 20.7098 9.35672 21 9.7115 21H12.2917C12.6465 21 12.9368 20.7098 12.9368 20.355V18.1622C13.5593 17.9945 14.1495 17.7462 14.6978 17.4334L16.2492 18.9845C16.5007 19.2361 16.9103 19.2361 17.1619 18.9845L18.9874 17.1593C19.239 16.9078 19.239 16.4982 18.9874 16.2467L17.4361 14.6956C17.7521 14.1474 17.9973 13.5605 18.165 12.9349H20.3549C20.7097 12.9349 21 12.6446 21 12.2899V9.7101C21 9.35537 20.7097 9.06514 20.3549 9.06514Z" stroke="#5C67FF" stroke-width="1.2" stroke-linejoin="round"/>
</g>
<defs>
<clipPath id="clip0_116_3512">
<rect width="22" height="22" fill="white"/>
</clipPath>
</defs>
</svg>
