<svg width="18" height="13" viewBox="0 0 18 13" fill="none" xmlns="http://www.w3.org/2000/svg">
<path fill-rule="evenodd" clip-rule="evenodd" d="M17.5474 6.54297C17.5474 6.18416 17.3533 5.94853 16.9651 5.47726C15.5451 3.75311 12.4128 0.542969 8.77711 0.542969C5.14138 0.542969 2.00917 3.75311 0.589079 5.47726C0.200917 5.94853 0.00683594 6.18416 0.00683594 6.54297C0.00683594 6.90177 0.200917 7.13741 0.589079 7.60868C2.00917 9.33283 5.14138 12.543 8.77711 12.543C12.4128 12.543 15.5451 9.33283 16.9651 7.60868C17.3533 7.13741 17.5474 6.90177 17.5474 6.54297ZM8.77711 9.54297C10.434 9.54297 11.7771 8.19982 11.7771 6.54297C11.7771 4.88611 10.434 3.54297 8.77711 3.54297C7.12026 3.54297 5.77711 4.88611 5.77711 6.54297C5.77711 8.19982 7.12026 9.54297 8.77711 9.54297Z" fill="#74788D"/>
</svg>
