<svg width="13" height="16" viewBox="0 0 13 16" fill="none" xmlns="http://www.w3.org/2000/svg">
<path fill-rule="evenodd" clip-rule="evenodd" d="M5.3706 0.542969H6.87061V3.54297L6.8706 3.59738C6.87051 4.02145 6.87043 4.43357 6.91613 4.77349C6.96765 5.15669 7.09318 5.59397 7.45639 5.95718C7.81961 6.3204 8.25688 6.44592 8.64009 6.49744C8.98 6.54314 9.39212 6.54306 9.81618 6.54298H9.8162L9.87061 6.54297H12.8706L12.8706 11.043C12.8706 13.1643 12.8706 14.2249 12.2116 14.884C11.5526 15.543 10.4919 15.543 8.3706 15.543H5.3706C3.24928 15.543 2.18862 15.543 1.52962 14.884C0.870605 14.2249 0.870605 13.1643 0.870605 11.043V5.04297C0.870605 2.92165 0.870605 1.86099 1.52962 1.20198C2.18862 0.542969 3.24928 0.542969 5.3706 0.542969ZM12.8194 4.54297C12.8037 4.47132 12.7832 4.40494 12.7564 4.34026C12.6422 4.06461 12.4255 3.84784 11.9919 3.41429L9.99928 1.42165C9.56574 0.988103 9.34897 0.77133 9.07331 0.657149C9.00863 0.630358 8.94225 0.609853 8.87061 0.59416V3.54297C8.87061 4.04264 8.87273 4.3168 8.8983 4.50699L8.8993 4.51428L8.90658 4.51527C9.09677 4.54084 9.37093 4.54297 9.87061 4.54297H12.8194Z" fill="#74788D"/>
<path fill-rule="evenodd" clip-rule="evenodd" d="M5.3706 0.542969H6.87061V3.54297L6.8706 3.59738C6.87051 4.02145 6.87043 4.43357 6.91613 4.77349C6.96765 5.15669 7.09318 5.59397 7.45639 5.95718C7.81961 6.3204 8.25688 6.44592 8.64009 6.49744C8.98 6.54314 9.39212 6.54306 9.81618 6.54298H9.8162L9.87061 6.54297H12.8706L12.8706 11.043C12.8706 13.1643 12.8706 14.2249 12.2116 14.884C11.5526 15.543 10.4919 15.543 8.3706 15.543H5.3706C3.24928 15.543 2.18862 15.543 1.52962 14.884C0.870605 14.2249 0.870605 13.1643 0.870605 11.043V5.04297C0.870605 2.92165 0.870605 1.86099 1.52962 1.20198C2.18862 0.542969 3.24928 0.542969 5.3706 0.542969ZM12.8194 4.54297C12.8037 4.47132 12.7832 4.40494 12.7564 4.34026C12.6422 4.06461 12.4255 3.84784 11.9919 3.41429L9.99928 1.42165C9.56574 0.988103 9.34897 0.77133 9.07331 0.657149C9.00863 0.630358 8.94225 0.609853 8.87061 0.59416V3.54297C8.87061 4.04264 8.87273 4.3168 8.8983 4.50699L8.8993 4.51428L8.90658 4.51527C9.09677 4.54084 9.37093 4.54297 9.87061 4.54297H12.8194Z" fill="#74788D"/>
</svg>
