<svg width="16" height="14" viewBox="0 0 16 14" fill="none" xmlns="http://www.w3.org/2000/svg">
<path d="M0.173828 5.08784C0.173828 4.42457 0.173828 4.09293 0.30291 3.8396C0.416453 3.61675 0.59763 3.43558 0.820471 3.32203C1.07381 3.19295 1.40545 3.19295 2.06872 3.19295H13.6749C14.3382 3.19295 14.6698 3.19295 14.9232 3.32203C15.146 3.43558 15.3272 3.61675 15.4407 3.8396C15.5698 4.09293 15.5698 4.42457 15.5698 5.08784V11.5621C15.5698 12.2253 15.5698 12.557 15.4407 12.8103C15.3272 13.0332 15.146 13.2143 14.9232 13.3279C14.6698 13.457 14.3382 13.457 13.6749 13.457H2.06872C1.40545 13.457 1.07381 13.457 0.820471 13.3279C0.59763 13.2143 0.416453 13.0332 0.30291 12.8103C0.173828 12.557 0.173828 12.2253 0.173828 11.5621V5.08784Z" fill="#5C67FF"/>
<path d="M0.173828 3.19295C0.173828 3.00967 0.173828 2.91803 0.1789 2.84065C0.256641 1.65455 1.20143 0.709766 2.38753 0.632025C2.4649 0.626953 2.55654 0.626953 2.73983 0.626953H4.40751C5.16864 0.626953 5.5492 0.626953 5.90084 0.73929C6.02649 0.77943 6.14857 0.829996 6.2658 0.890459C6.59388 1.05967 6.86298 1.32877 7.40118 1.86697L8.72716 3.19295H0.173828Z" fill="#C9CBFA"/>
<path d="M0.173828 3.19295L2.80672 3.19305V6.29376H0.173828V3.19295Z" fill="#5C67FF"/>
</svg>
