<svg width="16" height="13" viewBox="0 0 16 13" fill="none" xmlns="http://www.w3.org/2000/svg">
<path d="M0.172363 4.5898C0.172363 3.92652 0.172363 3.59489 0.301445 3.34155C0.414989 3.11871 0.596165 2.93753 0.819006 2.82399C1.07234 2.69491 1.40398 2.69491 2.06726 2.69491H13.6735C14.3367 2.69491 14.6684 2.69491 14.9217 2.82399C15.1446 2.93753 15.3257 3.11871 15.4393 3.34155C15.5684 3.59489 15.5684 3.92652 15.5684 4.5898V11.064C15.5684 11.7273 15.5684 12.0589 15.4393 12.3123C15.3257 12.5351 15.1446 12.7163 14.9217 12.8298C14.6684 12.9589 14.3367 12.9589 13.6735 12.9589H2.06726C1.40398 12.9589 1.07234 12.9589 0.819006 12.8298C0.596165 12.7163 0.414989 12.5351 0.301445 12.3123C0.172363 12.0589 0.172363 11.7273 0.172363 11.064V4.5898Z" fill="#D0D0D0"/>
<path d="M0.172363 2.69491C0.172363 2.51162 0.172363 2.41998 0.177435 2.34261C0.255176 1.15651 1.19996 0.211719 2.38606 0.133978C2.46344 0.128906 2.55508 0.128906 2.73836 0.128906H4.40605C5.16717 0.128906 5.54774 0.128906 5.89938 0.241243C6.02503 0.281383 6.1471 0.331949 6.26433 0.392413C6.59242 0.561628 6.86152 0.830727 7.39971 1.36892L8.7257 2.69491H0.172363Z" fill="#D0D0D0"/>
<path d="M0.172363 2.69491L2.80525 2.695V5.79571H0.172363V2.69491Z" fill="#D0D0D0"/>
</svg>
