<svg width="19" height="17" viewBox="0 0 19 17" fill="none" xmlns="http://www.w3.org/2000/svg">
<path fill-rule="evenodd" clip-rule="evenodd" d="M12.8131 10.9532C12.857 10.7194 12.88 10.4783 12.88 10.2318C12.88 8.08878 11.1428 6.35156 8.99982 6.35156C8.7533 6.35156 8.51214 6.37455 8.27838 6.41851L9.2197 7.35983C10.6351 7.46667 11.7649 8.59649 11.8717 10.0119L12.8131 10.9532ZM6.47038 8.85315C6.24674 9.2626 6.11963 9.73234 6.11963 10.2318C6.11963 11.8224 7.40914 13.112 8.99982 13.112C9.49924 13.112 9.96898 12.9848 10.3784 12.7612L11.1074 13.4902C10.5006 13.8835 9.77687 14.112 8.99982 14.112C6.85685 14.112 5.11963 12.3747 5.11963 10.2318C5.11963 9.45471 5.34804 8.73102 5.74138 8.12415L6.47038 8.85315Z" fill="#D0D0D0"/>
<path fill-rule="evenodd" clip-rule="evenodd" d="M13.0001 15.3837L12.2648 14.6483C11.2467 15.1953 10.1429 15.5527 9.00021 15.5527C7.39298 15.5527 5.86276 14.8456 4.53959 13.8985C3.22023 12.9541 2.14842 11.8007 1.46868 10.979C1.04361 10.4651 1 10.3765 1 10.2324C1 10.0883 1.04361 9.99968 1.46868 9.48582C2.11266 8.70732 3.10855 7.63111 4.33344 6.71698L3.61944 6.00299C2.36126 6.96206 1.35046 8.05984 0.698137 8.84843L0.639389 8.91923C0.307977 9.31799 0 9.68856 0 10.2324C0 10.7762 0.307976 11.1468 0.639389 11.5456L0.698137 11.6164C1.40791 12.4744 2.54208 13.6985 3.95754 14.7117C5.36918 15.7221 7.10261 16.5527 9.00021 16.5527C10.4534 16.5527 11.8103 16.0656 13.0001 15.3837ZM6.30824 4.44914C7.15194 4.11786 8.05574 3.91211 9.00021 3.91211C10.8978 3.91211 12.6312 4.74268 14.0429 5.75313C15.4583 6.7663 16.5925 7.99039 17.3023 8.84843L17.361 8.91923C17.6924 9.31799 18.0004 9.68856 18.0004 10.2324C18.0004 10.7762 17.6924 11.1468 17.361 11.5456L17.3023 11.6164C16.8445 12.1698 16.2102 12.8755 15.4377 13.5786L14.7298 12.8707C15.4718 12.1991 16.0861 11.5178 16.5317 10.979C16.9568 10.4651 17.0004 10.3765 17.0004 10.2324C17.0004 10.0883 16.9568 9.99968 16.5317 9.48582C15.852 8.66409 14.7802 7.51067 13.4608 6.56628C12.1377 5.61916 10.6074 4.91211 9.00021 4.91211C8.34773 4.91211 7.70794 5.02864 7.08955 5.23045L6.30824 4.44914Z" fill="#D0D0D0"/>
<path d="M2.20947 0.53125L17.7302 16.052" stroke="#D0D0D0"/>
</svg>
