<svg width="25" height="24" viewBox="0 0 25 24" fill="none" xmlns="http://www.w3.org/2000/svg">
<path d="M7.89798 7.62116C9.63683 7.62116 11.0465 6.21154 11.0465 4.47269C11.0465 2.73384 9.63683 1.32422 7.89798 1.32422C6.15913 1.32422 4.74951 2.73384 4.74951 4.47269C4.74951 6.21154 6.15913 7.62116 7.89798 7.62116Z" stroke="#B9BCBE" stroke-width="1.3"/>
<path d="M14.1294 7.62114C15.3915 7.62114 16.4146 6.59803 16.4146 5.33596C16.4146 4.07389 15.3915 3.05078 14.1294 3.05078C12.8673 3.05078 11.8442 4.07389 11.8442 5.33596C11.8442 6.59803 12.8673 7.62114 14.1294 7.62114Z" stroke="#B9BCBE" stroke-width="1.3"/>
<path d="M8.23413 12.9766H13.4602" stroke="#B9BCBE" stroke-width="1.3" stroke-linecap="round"/>
<path d="M10.5649 18.0352V22.6743" stroke="#B9BCBE" stroke-width="1.3" stroke-linecap="round"/>
<path d="M6.09326 22.6743L9.19537 18.0352" stroke="#B9BCBE" stroke-width="1.3" stroke-linecap="round"/>
<path d="M14.9658 22.6743L11.8638 18.0352" stroke="#B9BCBE" stroke-width="1.3" stroke-linecap="round"/>
<path d="M21.1288 9.37109L17.8032 10.3046V15.3237L21.1288 16.5813V9.37109Z" stroke="#B9BCBE" stroke-width="1.3" stroke-linejoin="round"/>
<mask id="path-8-inside-1_114_3368" fill="white">
<rect x="3.34717" y="7.47656" width="15" height="11" rx="1"/>
</mask>
<rect x="3.34717" y="7.47656" width="15" height="11" rx="1" stroke="#B9BCBE" stroke-width="2.6" mask="url(#path-8-inside-1_114_3368)"/>
</svg>
