<svg width="25" height="24" viewBox="0 0 25 24" fill="none" xmlns="http://www.w3.org/2000/svg">
<g clip-path="url(#clip0_114_3368)">
<g clip-path="url(#clip1_114_3368)">
<path d="M5.75813 9.48582V20.4858M1.85481 9.13095H11.0573M17.6402 9.13095H23.1455M23.5 19.7761C23.5 20.1664 23.1806 20.4858 22.7903 20.4858H2.20967C1.81935 20.4858 1.5 20.1664 1.5 19.7761V7.00193C1.5 6.61161 1.81935 6.29226 2.20967 6.29226H22.7903C23.1806 6.29226 23.5 6.61161 23.5 7.00193V19.7761ZM19.5967 13.7439C19.5967 16.6834 17.2136 19.0664 14.274 19.0664C11.3344 19.0664 8.95149 16.6834 8.95149 13.7439C8.95149 10.8043 11.3344 8.42128 14.274 8.42128C17.2136 8.42128 19.5967 10.8043 19.5967 13.7439ZM17.1606 13.7439C17.1606 15.3378 15.8684 16.6299 14.2745 16.6299C12.6806 16.6299 11.3884 15.3378 11.3884 13.7439C11.3884 12.15 12.6806 10.8578 14.2745 10.8578C15.8684 10.8578 17.1606 12.15 17.1606 13.7439ZM18.5323 6.29226H10.0161L11.0807 3.51562H17.4677L18.5323 6.29226ZM3.98383 4.87291H7.53221V6.29227H3.98383V4.87291Z" stroke="#B9BCBE" stroke-width="1.2" stroke-linecap="round" stroke-linejoin="round"/>
</g>
</g>
<defs>
<clipPath id="clip0_114_3368">
<rect width="24" height="24" fill="white" transform="translate(0.5)"/>
</clipPath>
<clipPath id="clip1_114_3368">
<rect width="25" height="19" fill="white" transform="translate(0 2.5)"/>
</clipPath>
</defs>
</svg>
