<svg width="25" height="24" viewBox="0 0 25 24" fill="none" xmlns="http://www.w3.org/2000/svg">
<path d="M19.5969 8.91719C19.5969 11.364 18.3873 14.1009 16.8773 16.543C15.3792 18.9659 13.6434 21.0071 12.7079 22.0427C12.5924 22.1705 12.4089 22.1705 12.2933 22.0427C11.3578 21.0071 9.62207 18.9659 8.1239 16.543C6.61391 14.1009 5.4043 11.364 5.4043 8.91719C5.4043 5.02725 8.57775 1.86719 12.5006 1.86719C16.4235 1.86719 19.5969 5.02725 19.5969 8.91719Z" stroke="#B9BCBE" stroke-width="1.3"/>
<path d="M15.1065 9.23C15.1065 10.6684 13.9398 11.835 12.5 11.835C11.0602 11.835 9.89355 10.6684 9.89355 9.23C9.89355 7.79157 11.0602 6.625 12.5 6.625C13.9398 6.625 15.1065 7.79157 15.1065 9.23Z" stroke="#B9BCBE" stroke-width="1.3"/>
</svg>
