<svg width="22" height="22" viewBox="0 0 22 22" fill="none" xmlns="http://www.w3.org/2000/svg">
<path d="M11.0518 3.00232L11.0518 13.6453" stroke="#B9BCBE" stroke-width="1.5" stroke-linecap="round" stroke-dasharray="3 3"/>
<path d="M3 9L19 9" stroke="#B9BCBE" stroke-width="1.5" stroke-linecap="round" stroke-dasharray="3 3"/>
<path d="M9.36795 2H1.00024V15.5994H21.1037V2H12.7294" stroke="#B9BCBE" stroke-width="1.5" stroke-linecap="round" stroke-linejoin="round"/>
<path d="M4.63062 15.8421C4.74378 15.6893 4.92264 15.5992 5.11275 15.5992H6.90427C7.39705 15.5992 7.67972 16.1604 7.38641 16.5564L5.64739 18.904C5.53423 19.0568 5.35537 19.1469 5.16526 19.1469H3.37374C2.88096 19.1469 2.59829 18.5858 2.89161 18.1898L4.63062 15.8421Z" fill="#B9BCBE"/>
<path d="M17.4729 15.8421C17.3597 15.6893 17.1809 15.5992 16.9908 15.5992H15.1992C14.7065 15.5992 14.4238 16.1604 14.7171 16.5564L16.4561 18.904C16.5693 19.0568 16.7481 19.1469 16.9383 19.1469H18.7298C19.2226 19.1469 19.5052 18.5858 19.2119 18.1898L17.4729 15.8421Z" fill="#B9BCBE"/>
</svg>
