<svg width="25" height="24" viewBox="0 0 25 24" fill="none" xmlns="http://www.w3.org/2000/svg">
<g clip-path="url(#clip0_114_3368)">
<g clip-path="url(#clip1_114_3368)">
<path d="M3.94092 5.86216L6.77963 8.70087M3.58594 7.99115V5.50728H6.06981M3.94092 18.1434L6.77963 15.3046M3.5861 16.0143V18.4982H6.06997M21.0591 18.1433L18.2203 15.3046M21.4139 16.0143V18.4982H18.9301M21.059 5.86216L18.2203 8.70087M21.4139 7.99117V5.5073H18.9301M23.5 19.8775C23.5 20.3108 23.1806 20.6653 22.7903 20.6653H2.20968C1.81936 20.6653 1.5 20.3108 1.5 19.8775V4.11991C1.5 3.68657 1.81936 3.33203 2.20968 3.33203H22.7903C23.1806 3.33203 23.5 3.68657 23.5 4.11991V19.8775Z" stroke="#B9BCBE" stroke-width="1.3" stroke-linecap="round" stroke-linejoin="round"/>
</g>
</g>
<defs>
<clipPath id="clip0_114_3368">
<rect width="24" height="24" fill="white" transform="translate(0.5)"/>
</clipPath>
<clipPath id="clip1_114_3368">
<rect width="25" height="20" fill="white" transform="translate(0 2)"/>
</clipPath>
</defs>
</svg>
