<svg width="24" height="24" viewBox="0 0 24 24" fill="none" xmlns="http://www.w3.org/2000/svg">
<circle cx="13.5657" cy="4.20051" r="1.55051" stroke="#B9BCBE" stroke-width="1.3"/>
<path d="M11.6593 6.66127L13.7934 7.63945C13.9166 7.69593 14.0171 7.79247 14.0785 7.91334L14.6245 8.98931C14.6787 9.09604 14.7636 9.18413 14.8682 9.24226L17.9648 10.9626C18.2203 11.14 18.8018 11.5698 18.5396 12.2612C18.2979 12.8986 17.7722 12.9156 17.4302 12.8699C17.375 12.8625 17.322 12.8451 17.2718 12.8211L14.0173 11.2638C13.686 11.1053 13.2914 11.2789 13.1843 11.6301L12.7925 12.9157C12.7383 13.0936 12.7697 13.2867 12.8775 13.4383L15.3204 16.8737C15.3927 16.9753 15.4315 17.0968 15.4315 17.2214V22.0292C15.4315 22.0739 15.4273 22.1187 15.4137 22.1613C15.3138 22.4744 14.9733 22.9212 14.2606 22.9906C13.3548 23.0788 13.038 22.5257 12.8993 22.2032C12.8692 22.133 12.8556 22.0573 12.8556 21.9809V17.5746C12.8556 17.404 12.783 17.2415 12.656 17.1277L11.8273 16.3851C11.5249 16.1142 11.0463 16.2155 10.8797 16.5857L10.2863 17.9045C10.2677 17.9457 10.2446 17.9847 10.2173 18.0207L7.22066 21.9755C7.16047 22.0549 7.08203 22.1195 6.98817 22.153C6.63044 22.2807 6.0179 22.3931 5.61736 22.0965C5.10764 21.719 5.02842 21.2102 5.00832 20.8526C5.0009 20.7205 5.04133 20.5902 5.11757 20.4821L7.94352 16.4737C7.98202 16.419 8.01081 16.3595 8.02932 16.2953C8.47999 14.7318 9.39066 11.5562 9.6409 10.622C9.85139 9.83615 9.45004 9.77682 9.10373 9.87952C8.96524 9.92059 8.86574 10.0352 8.80934 10.1682C8.40576 11.1199 7.68319 12.6998 7.57599 12.8573C7.34408 13.1979 6.98913 13.561 6.34118 13.3895C5.88609 13.269 5.75318 12.8414 5.68631 12.5411C5.6466 12.3629 5.66218 12.1647 5.73913 11.9991L7.47401 8.26553C7.53944 8.12473 7.65689 8.01478 7.80169 7.95877L11.1929 6.64711C11.3439 6.58869 11.5121 6.5938 11.6593 6.66127Z" stroke="#B9BCBE" stroke-width="1.3"/>
</svg>
