<svg width="25" height="24" viewBox="0 0 25 24" fill="none" xmlns="http://www.w3.org/2000/svg">
<g clip-path="url(#clip0_114_3368)">
<g clip-path="url(#clip1_114_3368)">
<path d="M19.7861 7.48394L23.1158 10.0301C23.3243 10.2386 23.4302 10.4368 23.484 10.6403C23.5784 10.9975 23.24 11.305 22.8705 11.305H19.7861M5.33592 11.305H2.12936C1.75984 11.305 1.42118 10.9975 1.51619 10.6404C1.5701 10.4377 1.67601 10.2399 1.88407 10.0301L12.0572 1.48488C12.3114 1.27129 12.6839 1.27653 12.9321 1.49718L16.3211 4.51033M18.9706 11.305H20.1707C20.6407 11.305 21.0218 11.686 21.0218 12.1526V21.4936C21.0218 21.9637 20.6407 22.3411 20.1707 22.3411H14.3536M10.6522 22.3447H4.83273C4.36265 22.3447 3.9816 21.9637 3.9816 21.4971V12.1561C3.9816 11.6861 4.36265 11.3086 4.83273 11.3086H5.68384M9.98216 22.6699V16.4011C9.98216 15.931 10.3561 15.5499 10.8226 15.5499H14.1808C14.6437 15.5499 15.0212 15.931 15.0212 16.4011V22.6699M16.3887 5.18248V2.92692C16.3887 2.42993 16.7484 2.02464 17.19 2.02464H19.1949C19.6365 2.02464 19.9962 2.42993 19.9962 2.92692V8.06562" stroke="#B9BCBE" stroke-width="1.3" stroke-miterlimit="10"/>
</g>
</g>
<defs>
<clipPath id="clip0_114_3368">
<rect width="24" height="24" fill="white" transform="translate(0.5)"/>
</clipPath>
<clipPath id="clip1_114_3368">
<rect width="24" height="23" fill="white" transform="translate(0.5 0.5)"/>
</clipPath>
</defs>
</svg>
