<svg width="22" height="22" viewBox="0 0 22 22" fill="none" xmlns="http://www.w3.org/2000/svg">
<g clip-path="url(#clip0_6_1641)">
<path d="M9.78246 6.03205L10.3206 6.06106L10.5198 5.56024L11.3611 3.44418C11.808 2.32008 12.6978 1.42942 13.8208 0.981634C15.4295 0.340249 17.213 1.36997 17.4619 3.08381C17.6356 4.28031 17.3092 5.49616 16.5591 6.44526L15.1472 8.23191L14.8131 8.65478L15.1073 9.10635L19.1768 15.3524C19.375 15.6567 19.3857 16.0473 19.2036 16.3628C18.8935 16.8999 18.1671 17.0094 17.7138 16.5906L17.2048 17.1414L17.7138 16.5906L12.9643 12.2022L12.3461 11.631L11.8496 12.3108L9.75832 15.1744L9.52392 15.4953L9.6579 15.8695L11.1138 19.9358C11.1138 19.9358 11.1138 19.9359 11.1138 19.9359C11.2098 20.2041 11.183 20.5012 11.0404 20.7481C10.6909 21.3536 9.838 21.4013 9.42384 20.8423L9.42382 20.8423L7.00848 17.5825L6.81467 17.321L6.49126 17.2839L2.46059 16.822L2.46055 16.822C1.76942 16.7429 1.38425 15.9805 1.73384 15.375C1.87643 15.128 2.12034 14.9563 2.40057 14.9053C2.40059 14.9053 2.40061 14.9053 2.40063 14.9053L6.65007 14.133L7.0411 14.0619L7.20186 13.6984L8.63618 10.4555L8.97664 9.68569L8.17284 9.43589L1.99774 7.5169C1.40834 7.33373 1.13999 6.64983 1.45007 6.11277C1.6322 5.79731 1.97575 5.61125 2.3384 5.6308L9.78246 6.03205Z" stroke="#B9BCBE" stroke-width="1.5"/>
</g>
<defs>
<clipPath id="clip0_6_1641">
<rect width="22" height="22" fill="white"/>
</clipPath>
</defs>
</svg>
