<svg width="22" height="22" viewBox="0 0 22 22" fill="none" xmlns="http://www.w3.org/2000/svg">
<g clip-path="url(#clip0_3_482)">
<path d="M13 3L3 12" stroke="#B9BCBE" stroke-width="1.5" stroke-linecap="round"/>
<path d="M19 9L9 19" stroke="#B9BCBE" stroke-width="1.5" stroke-linecap="round"/>
<path d="M17 5L5 17" stroke="#B9BCBE" stroke-width="1.5"/>
<path d="M0.75 1C0.75 0.861929 0.861929 0.75 1 0.75H5C5.13807 0.75 5.25 0.861929 5.25 1V5C5.25 5.13807 5.13807 5.25 5 5.25H1C0.861929 5.25 0.75 5.13807 0.75 5V1Z" stroke="#B9BCBE" stroke-width="1.5"/>
<path d="M0.75 17C0.75 16.8619 0.861929 16.75 1 16.75H5C5.13807 16.75 5.25 16.8619 5.25 17V21C5.25 21.1381 5.13807 21.25 5 21.25H1C0.861929 21.25 0.75 21.1381 0.75 21V17Z" stroke="#B9BCBE" stroke-width="1.5"/>
<path d="M16.75 1C16.75 0.861929 16.8619 0.75 17 0.75H21C21.1381 0.75 21.25 0.861929 21.25 1V5C21.25 5.13807 21.1381 5.25 21 5.25H17C16.8619 5.25 16.75 5.13807 16.75 5V1Z" stroke="#B9BCBE" stroke-width="1.5"/>
<path d="M16.75 17C16.75 16.8619 16.8619 16.75 17 16.75H21C21.1381 16.75 21.25 16.8619 21.25 17V21C21.25 21.1381 21.1381 21.25 21 21.25H17C16.8619 21.25 16.75 21.1381 16.75 21V17Z" stroke="#B9BCBE" stroke-width="1.5"/>
<path fill-rule="evenodd" clip-rule="evenodd" d="M2.00525 5V17H3.50525V5H2.00525ZM5 3.40491H17V1.90491H5V3.40491ZM19.9396 5H18.4396V17H19.9396V5ZM17 19.8393V18.3393H5V19.8393H17Z" fill="#B9BCBE"/>
</g>
<defs>
<clipPath id="clip0_3_482">
<rect width="22" height="22" fill="white"/>
</clipPath>
</defs>
</svg>
